<svg width="26" height="20" viewBox="0 0 26 20" fill="none" xmlns="http://www.w3.org/2000/svg">
<path d="M6.71102 2.31594H23.483V13.4939H21.858L17.372 6.63194L16.494 5.28694L15.621 6.62794L13.337 10.1159L12.795 9.37794L11.952 8.22894L11.105 9.38194L8.09102 13.4939H6.71102V2.31594ZM4.61402 0.215942V15.5909H25.58V0.215942H4.61402ZM2.52102 4.05994V3.01594H0.421021V19.7839H21.387V17.6839H2.52102V4.05994ZM11.606 5.10794C11.606 4.83105 11.5239 4.56037 11.3701 4.33014C11.2162 4.09991 10.9976 3.92047 10.7418 3.81451C10.486 3.70855 10.2045 3.68082 9.93289 3.73484C9.66132 3.78886 9.41186 3.9222 9.21607 4.11799C9.02028 4.31379 8.88694 4.56324 8.83292 4.83482C8.7789 5.10639 8.80663 5.38788 8.91259 5.6437C9.01855 5.89952 9.19799 6.11817 9.42822 6.272C9.65845 6.42583 9.92913 6.50794 10.206 6.50794C10.5768 6.50715 10.9321 6.3593 11.194 6.09683C11.4559 5.83437 11.603 5.47872 11.603 5.10794H11.606Z" fill="#3284D5"/>
</svg>
