<svg width="37" height="33" viewBox="0 0 37 33" fill="none" xmlns="http://www.w3.org/2000/svg">
<path d="M18.578 26.166C19.5794 26.1818 20.5737 25.9955 21.5015 25.6183C22.4292 25.241 23.2714 24.6804 23.9775 23.9702C24.6836 23.2599 25.2393 22.4146 25.6112 21.4846C25.9831 20.5547 26.1636 19.5593 26.142 18.558C26.1669 17.5624 25.9861 16.5723 25.611 15.6497C25.2359 14.7271 24.6746 13.8918 23.962 13.196C23.2577 12.4902 22.4172 11.935 21.4916 11.5642C20.5661 11.1934 19.5748 11.0147 18.578 11.039C17.5814 11.0131 16.5899 11.1896 15.6635 11.5577C14.7371 11.9258 13.8949 12.478 13.1879 13.1808C12.4809 13.8836 11.9237 14.7225 11.55 15.6467C11.1764 16.5709 10.994 17.5613 11.014 18.558C10.987 19.5618 11.1644 20.5606 11.5354 21.4937C11.9064 22.4268 12.4632 23.2747 13.172 23.986C13.8748 24.7015 14.7176 25.2644 15.6477 25.6395C16.5779 26.0146 17.5754 26.1938 18.578 26.166ZM18.578 23.496C17.9272 23.5177 17.279 23.4045 16.6741 23.1635C16.0692 22.9226 15.5206 22.5592 15.063 22.096C14.6052 21.6303 14.2465 21.0768 14.0085 20.4687C13.7704 19.8607 13.658 19.2107 13.678 18.558C13.6588 17.916 13.7712 17.2768 14.0084 16.6799C14.2455 16.0829 14.6024 15.5408 15.057 15.087C15.5186 14.6289 16.0691 14.2701 16.6747 14.033C17.2803 13.7958 17.928 13.6852 18.578 13.708C19.2231 13.6902 19.8652 13.8032 20.4655 14.0402C21.0659 14.2772 21.612 14.6333 22.071 15.087C22.5312 15.5376 22.8932 16.0787 23.1342 16.676C23.3751 17.2734 23.4898 17.9142 23.471 18.558C23.4909 19.2119 23.3771 19.8629 23.1363 20.4711C22.8956 21.0794 22.533 21.632 22.071 22.095C21.6153 22.5548 21.0703 22.9165 20.4696 23.1576C19.8688 23.3987 19.2251 23.5142 18.578 23.497V23.496ZM3.44797 32.663C3.09833 32.6643 2.75212 32.594 2.43069 32.4564C2.10925 32.3188 1.81939 32.1169 1.57897 31.863C1.3248 31.6226 1.12259 31.3326 0.984828 31.011C0.847064 30.6893 0.776664 30.3429 0.777972 29.993V7.16801C0.781219 6.82247 0.853685 6.48109 0.99109 6.16403C1.1285 5.84696 1.32805 5.56065 1.57797 5.32201C1.81516 5.06208 2.104 4.85453 2.426 4.71264C2.74801 4.57075 3.09609 4.49765 3.44797 4.49801H9.98797L13.236 0.627014H23.915L27.163 4.49801H33.704C34.0515 4.50232 34.3945 4.57754 34.7119 4.71906C35.0293 4.86057 35.3145 5.06541 35.55 5.32101C35.8056 5.55649 36.0104 5.84168 36.1519 6.1591C36.2934 6.47653 36.3687 6.8195 36.373 7.16701V29.993C36.3733 30.3447 36.3003 30.6925 36.1586 31.0143C36.0169 31.3361 35.8096 31.6249 35.55 31.862C35.3113 32.1119 35.025 32.3115 34.708 32.4489C34.3909 32.5863 34.0495 32.6588 33.704 32.662L3.44797 32.663ZM33.704 29.993V7.16801H25.917L22.669 3.29701H14.478L11.23 7.16801H3.44797V29.993H33.704Z" fill="#3284D5"/>
</svg>
